<svg xmlns="http://www.w3.org/2000/svg" xmlns:xlink="http://www.w3.org/1999/xlink" version="1.1" width="516" height="836"><defs/><g><g transform="translate(-166,-70) scale(1,1)"><rect fill="#ffffff" stroke="none" x="416" y="80" width="256" height="21"/></g><g transform="translate(-166,-70) scale(1,1)"><path fill="none" stroke="#000000" d="M 416 80 L 672 80 L 672 101 L 416 101 L 416 80 Z Z" stroke-miterlimit="10" stroke-width="2"/></g><g transform="translate(-166,-70) scale(1,1)"><path fill="none" stroke="#000000" d="M 416 896 L 416 80 L 672 80 L 672 896" stroke-miterlimit="10" stroke-width="2"/></g><g transform="translate(-166,-70) scale(1,1)"><g><path fill="none" stroke="none"/><text fill="#000000" stroke="none" font-family="Arial" font-size="13px" font-style="normal" font-weight="normal" text-decoration="none" x="524.85546875" y="94">Server</text></g></g><g transform="translate(-166,-70) scale(1,1)"><path fill="#C0C0C0" stroke="none" d="M 481 175 L 621 175 Q 631 175 631 185 L 631 231 Q 631 241 621 241 L 481 241 Q 471 241 471 231 L 471 185 Q 471 175 481 175 Z" opacity="0.2"/></g><g transform="translate(-166,-70) scale(1,1)"><path fill="#ffffff" stroke="none" d="M 474 168 L 614 168 Q 624 168 624 178 L 624 224 Q 624 234 614 234 L 474 234 Q 464 234 464 224 L 464 178 Q 464 168 474 168 Z"/></g><g transform="translate(-166,-70) scale(1,1)"><path fill="none" stroke="#000000" d="M 474 168 L 614 168 Q 624 168 624 178 L 624 224 Q 624 234 614 234 L 474 234 Q 464 234 464 224 L 464 178 Q 464 168 474 168 Z" stroke-miterlimit="10"/></g><g transform="translate(-166,-70) scale(1,1)"><g><path fill="none" stroke="none"/><text fill="#000000" stroke="none" font-family="Arial" font-size="13px" font-style="normal" font-weight="bold" text-decoration="none" x="497.754150390625" y="186">Extracts image</text><text fill="#000000" stroke="none" font-family="Arial" font-size="13px" font-style="normal" font-weight="bold" text-decoration="none" x="484.408203125" y="199">properties from the</text><text fill="#000000" stroke="none" font-family="Arial" font-size="13px" font-style="normal" font-weight="bold" text-decoration="none" x="520.52001953125" y="211.5">request</text></g></g><g transform="translate(-166,-70) scale(1,1)"><rect fill="#ffffff" stroke="none" x="176" y="80" width="240" height="21"/></g><g transform="translate(-166,-70) scale(1,1)"><path fill="none" stroke="#000000" d="M 176 80 L 416 80 L 416 101 L 176 101 L 176 80 Z Z" stroke-miterlimit="10" stroke-width="2"/></g><g transform="translate(-166,-70) scale(1,1)"><path fill="none" stroke="#000000" d="M 176 896 L 176 80 L 416 80 L 416 896" stroke-miterlimit="10" stroke-width="2"/></g><g transform="translate(-166,-70) scale(1,1)"><g><path fill="none" stroke="none"/><text fill="#000000" stroke="none" font-family="Arial" font-size="13px" font-style="normal" font-weight="normal" text-decoration="none" x="279.3818359375" y="94">Client</text></g></g><g transform="translate(-166,-70) scale(1,1)"><path fill="none" stroke="#000000" d="M 297 148 L 298 183" stroke-miterlimit="10"/></g><g transform="translate(-166,-70) scale(1,1)"><path fill="none" stroke="#000000" d="M 293.5019556671291 172.96169351038094 L 298 183 L 301.9175569405878 172.7212477597107" stroke-miterlimit="10"/></g><g transform="translate(-166,-70) scale(1,1)"><path fill="#C0C0C0" stroke="none" d="M 295 144.5 C 295 139.2532944 299.2532944 135 304.5 135 C 309.7467056 135 314 139.2532944 314 144.5 C 314 149.7467056 309.7467056 154 304.5 154 C 299.2532944 154 295 149.7467056 295 144.5 Z" opacity="0.2"/></g><g transform="translate(-166,-70) scale(1,1)"><path fill="#000000" stroke="none" d="M 288 137.5 C 288 132.2532944 292.2532944 128 297.5 128 C 302.7467056 128 307 132.2532944 307 137.5 C 307 142.7467056 302.7467056 147 297.5 147 C 292.2532944 147 288 142.7467056 288 137.5 Z"/></g><g transform="translate(-166,-70) scale(1,1)"><path fill="#C0C0C0" stroke="none" d="M 225 191 L 388.60498046875 191 Q 398.60498046875 191 398.60498046875 201 L 398.60498046875 221 Q 398.60498046875 231 388.60498046875 231 L 225 231 Q 215 231 215 221 L 215 201 Q 215 191 225 191 Z" opacity="0.2"/></g><g transform="translate(-166,-70) scale(1,1)"><path fill="#ffffff" stroke="none" d="M 218 184 L 381.60498046875 184 Q 391.60498046875 184 391.60498046875 194 L 391.60498046875 214 Q 391.60498046875 224 381.60498046875 224 L 218 224 Q 208 224 208 214 L 208 194 Q 208 184 218 184 Z"/></g><g transform="translate(-166,-70) scale(1,1)"><path fill="none" stroke="#000000" d="M 218 184 L 381.60498046875 184 Q 391.60498046875 184 391.60498046875 194 L 391.60498046875 214 Q 391.60498046875 224 381.60498046875 224 L 218 224 Q 208 224 208 214 L 208 194 Q 208 184 218 184 Z" stroke-miterlimit="10"/></g><g transform="translate(-166,-70) scale(1,1)"><g><path fill="none" stroke="none"/><text fill="#000000" stroke="none" font-family="Arial" font-size="13px" font-style="normal" font-weight="bold" text-decoration="none" x="212.5" y="202">Takes Image of the currency</text></g></g><g transform="translate(-166,-70) scale(1,1)"><path fill="none" stroke="#000000" d="M 393 203 L 463 202" stroke-miterlimit="10"/></g><g transform="translate(-166,-70) scale(1,1)"><path fill="none" stroke="#000000" d="M 452.8984918238746 206.35425453638987 L 463 202 L 452.7782321587568 197.93607797814394" stroke-miterlimit="10"/></g><g transform="translate(-166,-70) scale(1,1)"><g><path fill="none" stroke="none"/><text fill="#000000" stroke="none" font-family="Arial" font-size="13px" font-style="normal" font-weight="normal" text-decoration="none" x="406.5" y="191.5">request</text></g></g><g transform="translate(-166,-70) scale(1,1)"><path fill="#C0C0C0" stroke="none" d="M 497 287 L 611.70263671875 287 Q 621.70263671875 287 621.70263671875 297 L 621.70263671875 317 Q 621.70263671875 327 611.70263671875 327 L 497 327 Q 487 327 487 317 L 487 297 Q 487 287 497 287 Z" opacity="0.2"/></g><g transform="translate(-166,-70) scale(1,1)"><path fill="#ffffff" stroke="none" d="M 490 280 L 604.70263671875 280 Q 614.70263671875 280 614.70263671875 290 L 614.70263671875 310 Q 614.70263671875 320 604.70263671875 320 L 490 320 Q 480 320 480 310 L 480 290 Q 480 280 490 280 Z"/></g><g transform="translate(-166,-70) scale(1,1)"><path fill="none" stroke="#000000" d="M 490 280 L 604.70263671875 280 Q 614.70263671875 280 614.70263671875 290 L 614.70263671875 310 Q 614.70263671875 320 604.70263671875 320 L 490 320 Q 480 320 480 310 L 480 290 Q 480 280 490 280 Z" stroke-miterlimit="10"/></g><g transform="translate(-166,-70) scale(1,1)"><g><path fill="none" stroke="none"/><text fill="#000000" stroke="none" font-family="Arial" font-size="13px" font-style="normal" font-weight="bold" text-decoration="none" x="484.5" y="298">Data pre-processing</text></g></g><g transform="translate(-166,-70) scale(1,1)"><path fill="none" stroke="#000000" d="M 545 235 L 546 279" stroke-miterlimit="10"/></g><g transform="translate(-166,-70) scale(1,1)"><path fill="none" stroke="#000000" d="M 541.5606587369277 268.93559494306874 L 546 279 L 549.9775207532447 268.7443026245161" stroke-miterlimit="10"/></g><g transform="translate(-166,-70) scale(1,1)"><g><path fill="none" stroke="none"/><text fill="#000000" stroke="none" font-family="Arial" font-size="13px" font-style="normal" font-weight="normal" text-decoration="none" x="553.5" y="256">Image Properties</text></g></g><g transform="translate(-166,-70) scale(1,1)"><path fill="#C0C0C0" stroke="none" d="M 505 367 L 598 367 Q 608 367 608 377 L 608 397 Q 608 407 598 407 L 505 407 Q 495 407 495 397 L 495 377 Q 495 367 505 367 Z" opacity="0.2"/></g><g transform="translate(-166,-70) scale(1,1)"><path fill="#ffffff" stroke="none" d="M 498 360 L 591 360 Q 601 360 601 370 L 601 390 Q 601 400 591 400 L 498 400 Q 488 400 488 390 L 488 370 Q 488 360 498 360 Z"/></g><g transform="translate(-166,-70) scale(1,1)"><path fill="none" stroke="#000000" d="M 498 360 L 591 360 Q 601 360 601 370 L 601 390 Q 601 400 591 400 L 498 400 Q 488 400 488 390 L 488 370 Q 488 360 498 360 Z" stroke-miterlimit="10"/></g><g transform="translate(-166,-70) scale(1,1)"><g><path fill="none" stroke="none"/><text fill="#000000" stroke="none" font-family="Arial" font-size="13px" font-style="normal" font-weight="bold" text-decoration="none" x="492.5" y="378">Model prediction</text></g></g><g transform="translate(-166,-70) scale(1,1)"><path fill="none" stroke="#000000" d="M 546 321 L 545 359" stroke-miterlimit="10"/></g><g transform="translate(-166,-70) scale(1,1)"><path fill="none" stroke="#000000" d="M 541.0592853332588 348.7301038021151 L 545 359 L 549.4754071800323 348.9515806928197" stroke-miterlimit="10"/></g><g transform="translate(-166,-70) scale(1,1)"><g><path fill="none" stroke="none"/><text fill="#000000" stroke="none" font-family="Arial" font-size="13px" font-style="normal" font-weight="normal" text-decoration="none" x="558.5" y="344">Processed Data</text></g></g><g transform="translate(-166,-70) scale(1,1)"><path fill="#C0C0C0" stroke="none" d="M 535 471.5 L 551.5 455 L 567 471.5 L 551.5 487 L 535 471.5" opacity="0.2"/></g><g transform="translate(-166,-70) scale(1,1)"><path fill="#ffffff" stroke="none" d="M 528 464 L 544 448 L 560 464 L 544 480 L 528 464"/></g><g transform="translate(-166,-70) scale(1,1)"><path fill="none" stroke="#000000" d="M 528 464 L 544 448 L 560 464 L 544 480 L 528 464 L 528 464" stroke-miterlimit="10"/></g><g transform="translate(-166,-70) scale(1,1)"><path fill="none" stroke="#000000" d="M 544 401 L 544 447" stroke-miterlimit="10"/></g><g transform="translate(-166,-70) scale(1,1)"><path fill="none" stroke="#000000" d="M 539.790482243984 436.83732514237585 L 544 447 L 548.209517756016 436.83732514237585" stroke-miterlimit="10"/></g><g transform="translate(-166,-70) scale(1,1)"><g><path fill="none" stroke="none"/><text fill="#000000" stroke="none" font-family="Arial" font-size="13px" font-style="normal" font-weight="normal" text-decoration="none" x="558.5" y="428">Predicted Value</text></g></g><g transform="translate(-166,-70) scale(1,1)"><path fill="#C0C0C0" stroke="none" d="M 457 519 L 508.130859375 519 Q 518.130859375 519 518.130859375 529 L 518.130859375 562 Q 518.130859375 572 508.130859375 572 L 457 572 Q 447 572 447 562 L 447 529 Q 447 519 457 519 Z" opacity="0.2"/></g><g transform="translate(-166,-70) scale(1,1)"><path fill="#ffffff" stroke="none" d="M 450 512 L 501.130859375 512 Q 511.130859375 512 511.130859375 522 L 511.130859375 555 Q 511.130859375 565 501.130859375 565 L 450 565 Q 440 565 440 555 L 440 522 Q 440 512 450 512 Z"/></g><g transform="translate(-166,-70) scale(1,1)"><path fill="none" stroke="#000000" d="M 450 512 L 501.130859375 512 Q 511.130859375 512 511.130859375 522 L 511.130859375 555 Q 511.130859375 565 501.130859375 565 L 450 565 Q 440 565 440 555 L 440 522 Q 440 512 450 512 Z" stroke-miterlimit="10"/></g><g transform="translate(-166,-70) scale(1,1)"><g><path fill="none" stroke="none"/><text fill="#000000" stroke="none" font-family="Arial" font-size="13px" font-style="normal" font-weight="bold" text-decoration="none" x="449.1845703125" y="530">Success</text><text fill="#000000" stroke="none" font-family="Arial" font-size="13px" font-style="normal" font-weight="bold" text-decoration="none" x="444.5" y="543">Response</text></g></g><g transform="translate(-166,-70) scale(1,1)"><path fill="none" stroke="#000000" d="M 528 481 L 500 511" stroke-miterlimit="10"/></g><g transform="translate(-166,-70) scale(1,1)"><path fill="none" stroke="#000000" d="M 503.8567883955344 500.69829221575026 L 500 511 L 510.01156866012917 506.44275379603874" stroke-miterlimit="10"/></g><g transform="translate(-166,-70) scale(1,1)"><g><path fill="none" stroke="none"/><text fill="#000000" stroke="none" font-family="Arial" font-size="13px" font-style="normal" font-weight="normal" text-decoration="none" x="461.04638671875" y="466">If the</text><text fill="#000000" stroke="none" font-family="Arial" font-size="13px" font-style="normal" font-weight="normal" text-decoration="none" x="448.760498046875" y="479">predicted</text><text fill="#000000" stroke="none" font-family="Arial" font-size="13px" font-style="normal" font-weight="normal" text-decoration="none" x="448.0400390625" y="492">value is 1</text></g></g><g transform="translate(-166,-70) scale(1,1)"><path fill="#C0C0C0" stroke="none" d="M 585 519 L 637 519 Q 647 519 647 529 L 647 564 Q 647 574 637 574 L 585 574 Q 575 574 575 564 L 575 529 Q 575 519 585 519 Z" opacity="0.2"/></g><g transform="translate(-166,-70) scale(1,1)"><path fill="#ffffff" stroke="none" d="M 578 512 L 630 512 Q 640 512 640 522 L 640 557 Q 640 567 630 567 L 578 567 Q 568 567 568 557 L 568 522 Q 568 512 578 512 Z"/></g><g transform="translate(-166,-70) scale(1,1)"><path fill="none" stroke="#000000" d="M 578 512 L 630 512 Q 640 512 640 522 L 640 557 Q 640 567 630 567 L 578 567 Q 568 567 568 557 L 568 522 Q 568 512 578 512 Z" stroke-miterlimit="10"/></g><g transform="translate(-166,-70) scale(1,1)"><g><path fill="none" stroke="none"/><text fill="#000000" stroke="none" font-family="Arial" font-size="13px" font-style="normal" font-weight="bold" text-decoration="none" x="588.10546875" y="530">Error</text><text fill="#000000" stroke="none" font-family="Arial" font-size="13px" font-style="normal" font-weight="bold" text-decoration="none" x="572.9345703125" y="543">Response</text></g></g><g transform="translate(-166,-70) scale(1,1)"><path fill="none" stroke="#000000" d="M 558 481 L 582 511" stroke-miterlimit="10"/></g><g transform="translate(-166,-70) scale(1,1)"><path fill="none" stroke="#000000" d="M 572.3643462280668 505.693949077946 L 582 511 L 578.9385084650058 500.4346192883948" stroke-miterlimit="10"/></g><g transform="translate(-166,-70) scale(1,1)"><g><path fill="none" stroke="none"/><text fill="#000000" stroke="none" font-family="Arial" font-size="13px" font-style="normal" font-weight="normal" text-decoration="none" x="599.811279296875" y="467">If the</text><text fill="#000000" stroke="none" font-family="Arial" font-size="13px" font-style="normal" font-weight="normal" text-decoration="none" x="587.525390625" y="480">predicted</text><text fill="#000000" stroke="none" font-family="Arial" font-size="13px" font-style="normal" font-weight="normal" text-decoration="none" x="586.804931640625" y="493">value is 0</text></g></g><g transform="translate(-166,-70) scale(1,1)"><path fill="#C0C0C0" stroke="none" d="M 514 623 L 577 623 Q 580 623 580 626 L 580 625 Q 580 628 577 628 L 514 628 Q 511 628 511 625 L 511 626 Q 511 623 514 623 Z" opacity="0.2"/></g><g transform="translate(-166,-70) scale(1,1)"><path fill="#000000" stroke="none" d="M 507 616 L 570 616 Q 573 616 573 619 L 573 619 Q 573 622 570 622 L 507 622 Q 504 622 504 619 L 504 619 Q 504 616 507 616 Z"/></g><g transform="translate(-166,-70) scale(1,1)"><path fill="none" stroke="#000000" d="M 497 566 L 536 615" stroke-miterlimit="10"/></g><g transform="translate(-166,-70) scale(1,1)"><path fill="none" stroke="#000000" d="M 526.3776081953939 609.669936589622 L 536 615 L 532.9648654853618 604.4270175220967" stroke-miterlimit="10"/></g><g transform="translate(-166,-70) scale(1,1)"><path fill="none" stroke="#000000" d="M 580 568 L 541 615" stroke-miterlimit="10"/></g><g transform="translate(-166,-70) scale(1,1)"><path fill="none" stroke="#000000" d="M 544.2501207657572 604.4911125704006 L 541 615 L 550.729087997338 609.8672768689463" stroke-miterlimit="10"/></g><g transform="translate(-166,-70) scale(1,1)"><path fill="#C0C0C0" stroke="none" d="M 513 663 L 580 663 Q 590 663 590 673 L 590 693 Q 590 703 580 703 L 513 703 Q 503 703 503 693 L 503 673 Q 503 663 513 663 Z" opacity="0.2"/></g><g transform="translate(-166,-70) scale(1,1)"><path fill="#ffffff" stroke="none" d="M 506 656 L 573 656 Q 583 656 583 666 L 583 686 Q 583 696 573 696 L 506 696 Q 496 696 496 686 L 496 666 Q 496 656 506 656 Z"/></g><g transform="translate(-166,-70) scale(1,1)"><path fill="none" stroke="#000000" d="M 506 656 L 573 656 Q 583 656 583 666 L 583 686 Q 583 696 573 696 L 506 696 Q 496 696 496 686 L 496 666 Q 496 656 506 656 Z" stroke-miterlimit="10"/></g><g transform="translate(-166,-70) scale(1,1)"><g><path fill="none" stroke="none"/><text fill="#000000" stroke="none" font-family="Arial" font-size="13px" font-style="normal" font-weight="bold" text-decoration="none" x="508.4345703125" y="674">Response</text></g></g><g transform="translate(-166,-70) scale(1,1)"><path fill="none" stroke="#000000" d="M 538 622 L 539 655" stroke-miterlimit="10"/></g><g transform="translate(-166,-70) scale(1,1)"><path fill="none" stroke="#000000" d="M 534.4845951127468 644.9694906059477 L 539 655 L 542.8997677957101 644.7144853731307" stroke-miterlimit="10"/></g><g transform="translate(-166,-70) scale(1,1)"><path fill="#C0C0C0" stroke="none" d="M 241 647 L 357 647 Q 367 647 367 657 L 367 708 Q 367 718 357 718 L 241 718 Q 231 718 231 708 L 231 657 Q 231 647 241 647 Z" opacity="0.2"/></g><g transform="translate(-166,-70) scale(1,1)"><path fill="#ffffff" stroke="none" d="M 234 640 L 350 640 Q 360 640 360 650 L 360 701 Q 360 711 350 711 L 234 711 Q 224 711 224 701 L 224 650 Q 224 640 234 640 Z"/></g><g transform="translate(-166,-70) scale(1,1)"><path fill="none" stroke="#000000" d="M 234 640 L 350 640 Q 360 640 360 650 L 360 701 Q 360 711 350 711 L 234 711 Q 224 711 224 701 L 224 650 Q 224 640 234 640 Z" stroke-miterlimit="10"/></g><g transform="translate(-166,-70) scale(1,1)"><g><path fill="none" stroke="none"/><text fill="#000000" stroke="none" font-family="Arial" font-size="13px" font-style="normal" font-weight="bold" text-decoration="none" x="253.707763671875" y="658">Displays the</text><text fill="#000000" stroke="none" font-family="Arial" font-size="13px" font-style="normal" font-weight="bold" text-decoration="none" x="235.293212890625" y="671">response from the</text><text fill="#000000" stroke="none" font-family="Arial" font-size="13px" font-style="normal" font-weight="bold" text-decoration="none" x="272.48095703125" y="682.5">server</text></g></g><g transform="translate(-166,-70) scale(1,1)"><path fill="none" stroke="#000000" d="M 495 676 L 361 675" stroke-miterlimit="10"/></g><g transform="translate(-166,-70) scale(1,1)"><path fill="none" stroke="#000000" d="M 371.19380531806127 670.8664382020507 L 361 675 L 371.13097844428023 679.285239288713" stroke-miterlimit="10"/></g><g transform="translate(-166,-70) scale(1,1)"><g><path fill="none" stroke="none"/><text fill="#000000" stroke="none" font-family="Arial" font-size="13px" font-style="normal" font-weight="normal" text-decoration="none" x="398.04541015625" y="690">send's the</text><text fill="#000000" stroke="none" font-family="Arial" font-size="13px" font-style="normal" font-weight="normal" text-decoration="none" x="400.733642578125" y="701.5">response</text></g></g><g transform="translate(-166,-70) scale(1,1)"><path fill="#C0C0C0" stroke="none" d="M 489 759 L 605 759 Q 615 759 615 769 L 615 815 Q 615 825 605 825 L 489 825 Q 479 825 479 815 L 479 769 Q 479 759 489 759 Z" opacity="0.2"/></g><g transform="translate(-166,-70) scale(1,1)"><path fill="#ffffff" stroke="none" d="M 482 752 L 598 752 Q 608 752 608 762 L 608 808 Q 608 818 598 818 L 482 818 Q 472 818 472 808 L 472 762 Q 472 752 482 752 Z"/></g><g transform="translate(-166,-70) scale(1,1)"><path fill="none" stroke="#000000" d="M 482 752 L 598 752 Q 608 752 608 762 L 608 808 Q 608 818 598 818 L 482 818 Q 472 818 472 808 L 472 762 Q 472 752 482 752 Z" stroke-miterlimit="10"/></g><g transform="translate(-166,-70) scale(1,1)"><g><path fill="none" stroke="none"/><text fill="#000000" stroke="none" font-family="Arial" font-size="13px" font-style="normal" font-weight="bold" text-decoration="none" x="490.891357421875" y="770">Updating model</text><text fill="#000000" stroke="none" font-family="Arial" font-size="13px" font-style="normal" font-weight="bold" text-decoration="none" x="488.345947265625" y="783">using processed</text><text fill="#000000" stroke="none" font-family="Arial" font-size="13px" font-style="normal" font-weight="bold" text-decoration="none" x="478.95458984375" y="796">and predicted value</text></g></g><g transform="translate(-166,-70) scale(1,1)"><path fill="none" stroke="#000000" d="M 539 697 L 540 751" stroke-miterlimit="10"/></g><g transform="translate(-166,-70) scale(1,1)"><path fill="none" stroke="#000000" d="M 535.603038433977 740.9170079347986 L 540 751 L 544.0206307240026 740.7611265960943" stroke-miterlimit="10"/></g><g transform="translate(-166,-70) scale(1,1)"><g><path fill="none" stroke="none"/><text fill="#000000" stroke="none" font-family="Arial" font-size="13px" font-style="normal" font-weight="normal" text-decoration="none" x="569.041259765625" y="715">sends predicted</text><text fill="#000000" stroke="none" font-family="Arial" font-size="13px" font-style="normal" font-weight="normal" text-decoration="none" x="572.291259765625" y="728">and processed</text><text fill="#000000" stroke="none" font-family="Arial" font-size="13px" font-style="normal" font-weight="normal" text-decoration="none" x="596.142578125" y="741">values</text></g></g><g transform="translate(-166,-70) scale(1,1)"><path fill="#C0C0C0" stroke="none" d="M 535 875.5 C 535 868.59644 540.59644 863 547.5 863 C 554.40356 863 560 868.59644 560 875.5 C 560 882.40356 554.40356 888 547.5 888 C 540.59644 888 535 882.40356 535 875.5 Z" opacity="0.2"/></g><g transform="translate(-166,-70) scale(1,1)"><path fill="none" stroke="#000000" d="M 528 868.5 C 528 861.59644 533.59644 856 540.5 856 C 547.40356 856 553 861.59644 553 868.5 C 553 875.40356 547.40356 881 540.5 881 C 533.59644 881 528 875.40356 528 868.5 Z" stroke-miterlimit="10"/></g><g transform="translate(-166,-70) scale(1,1)"><path fill="#000000" stroke="none" d="M 533 868.5 C 533 864.357864 536.357864 861 540.5 861 C 544.642136 861 548 864.357864 548 868.5 C 548 872.642136 544.642136 876 540.5 876 C 536.357864 876 533 872.642136 533 868.5 Z"/></g><g transform="translate(-166,-70) scale(1,1)"><path fill="none" stroke="#000000" d="M 540 819 L 540 855" stroke-miterlimit="10"/></g><g transform="translate(-166,-70) scale(1,1)"><path fill="none" stroke="#000000" d="M 535.790482243984 844.8373251423759 L 540 855 L 544.209517756016 844.8373251423759" stroke-miterlimit="10"/></g><g transform="translate(-166,-70) scale(1,1)"><path fill="none" stroke="#000000" d="M 291 712 L 288 864 L 527 868" stroke-miterlimit="10"/></g><g transform="translate(-166,-70) scale(1,1)"><path fill="none" stroke="#000000" d="M 516.7683058473237 872.0388655295877 L 527 868 L 516.9091904773438 863.6210088858879" stroke-miterlimit="10"/></g></g></svg>