<svg xmlns="http://www.w3.org/2000/svg" xmlns:xlink="http://www.w3.org/1999/xlink" version="1.1" width="502.17724609375" height="443"><defs/><g><g transform="translate(-278,-238) scale(1,1)"><rect fill="#C0C0C0" stroke="none" x="407" y="255" width="247" height="423" opacity="0.2"/></g><g transform="translate(-278,-238) scale(1,1)"><rect fill="#ffffff" stroke="none" x="400" y="248" width="247" height="423"/></g><g transform="translate(-278,-238) scale(1,1)"><path fill="none" stroke="#000000" d="M 400 248 L 647 248 L 647 671 L 400 671 L 400 248 Z Z" stroke-miterlimit="10"/></g><g transform="translate(-278,-238) scale(1,1)"><g><path fill="none" stroke="none"/><text fill="#000000" stroke="none" font-family="Arial" font-size="13px" font-style="normal" font-weight="bold" text-decoration="none" x="454.174072265625" y="266">Application - front end</text></g></g><g transform="translate(-278,-238) scale(1,1)"><path fill="#ffffff" stroke="none" d="M 304.40935031960225 441.68 C 304.40935031960225 436.886167936 308.29519264454774 433 313.088623046875 433 C 317.88205344920226 433 321.76789577414775 436.886167936 321.76789577414775 441.68 C 321.76789577414775 446.473832064 317.88205344920226 450.36 313.088623046875 450.36 C 308.29519264454774 450.36 304.40935031960225 446.473832064 304.40935031960225 441.68 Z"/></g><g transform="translate(-278,-238) scale(1,1)"><path fill="none" stroke="#000000" d="M 304.40935031960225 441.68 C 304.40935031960225 436.886167936 308.29519264454774 433 313.088623046875 433 C 317.88205344920226 433 321.76789577414775 436.886167936 321.76789577414775 441.68 C 321.76789577414775 446.473832064 317.88205344920226 450.36 313.088623046875 450.36 C 308.29519264454774 450.36 304.40935031960225 446.473832064 304.40935031960225 441.68 Z" stroke-miterlimit="10"/></g><g transform="translate(-278,-238) scale(1,1)"><path fill="none" stroke="#000000" d="M 313.088623046875 450.36 L 313.088623046875 467.64" stroke-miterlimit="10"/></g><g transform="translate(-278,-238) scale(1,1)"><path fill="none" stroke="#000000" d="M 303.89880486505683 456.84 L 322.27844122869317 456.84" stroke-miterlimit="10"/></g><g transform="translate(-278,-238) scale(1,1)"><path fill="none" stroke="#000000" d="M 313.088623046875 467.64 L 300.32498668323865 485" stroke-miterlimit="10"/></g><g transform="translate(-278,-238) scale(1,1)"><path fill="none" stroke="#000000" d="M 313.088623046875 467.64 L 325.85225941051135 485" stroke-miterlimit="10"/></g><g transform="translate(-278,-238) scale(1,1)"><g><path fill="none" stroke="none"/><text fill="#000000" stroke="none" font-family="Arial" font-size="13px" font-style="normal" font-weight="bold" text-decoration="none" x="298.635009765625" y="504">User</text></g></g><g transform="translate(-278,-238) scale(1,1)"><path fill="#C0C0C0" stroke="none" d="M 487 359 C 487 341.3268864 506.6994688 327 531 327 C 555.3005312 327 575 341.3268864 575 359 C 575 376.6731136 555.3005312 391 531 391 C 506.6994688 391 487 376.6731136 487 359 Z" opacity="0.2"/></g><g transform="translate(-278,-238) scale(1,1)"><path fill="#ffffff" stroke="none" d="M 480 352 C 480 334.3268864 499.6994688 320 524 320 C 548.3005312 320 568 334.3268864 568 352 C 568 369.6731136 548.3005312 384 524 384 C 499.6994688 384 480 369.6731136 480 352 Z"/></g><g transform="translate(-278,-238) scale(1,1)"><path fill="none" stroke="#000000" d="M 480 352 C 480 334.3268864 499.6994688 320 524 320 C 548.3005312 320 568 334.3268864 568 352 C 568 369.6731136 548.3005312 384 524 384 C 499.6994688 384 480 369.6731136 480 352 Z" stroke-miterlimit="10"/></g><g transform="translate(-278,-238) scale(1,1)"><g><path fill="none" stroke="none"/><text fill="#000000" stroke="none" font-family="Arial" font-size="13px" font-style="normal" font-weight="bold" text-decoration="none" x="500.15185546875" y="357.5">Camera</text></g></g><g transform="translate(-278,-238) scale(1,1)"><path fill="none" stroke="#000000" d="M 339 456 L 479 377" stroke-miterlimit="10"/></g><g transform="translate(-278,-238) scale(1,1)"><path fill="#C0C0C0" stroke="none" d="M 471 479 C 471 461.3268864 495.8481936 447 526.5 447 C 557.1518064 447 582 461.3268864 582 479 C 582 496.6731136 557.1518064 511 526.5 511 C 495.8481936 511 471 496.6731136 471 479 Z" opacity="0.2"/></g><g transform="translate(-278,-238) scale(1,1)"><path fill="#ffffff" stroke="none" d="M 464 472 C 464 454.3268864 488.8481936 440 519.5 440 C 550.1518064 440 575 454.3268864 575 472 C 575 489.6731136 550.1518064 504 519.5 504 C 488.8481936 504 464 489.6731136 464 472 Z"/></g><g transform="translate(-278,-238) scale(1,1)"><path fill="none" stroke="#000000" d="M 464 472 C 464 454.3268864 488.8481936 440 519.5 440 C 550.1518064 440 575 454.3268864 575 472 C 575 489.6731136 550.1518064 504 519.5 504 C 488.8481936 504 464 489.6731136 464 472 Z" stroke-miterlimit="10"/></g><g transform="translate(-278,-238) scale(1,1)"><g><path fill="none" stroke="none"/><text fill="#000000" stroke="none" font-family="Arial" font-size="13px" font-style="normal" font-weight="bold" text-decoration="none" x="484.5751953125" y="477.5">Take Image</text></g></g><g transform="translate(-278,-238) scale(1,1)"><path fill="none" stroke="#000000" d="M 520 384 L 520 440" stroke-miterlimit="10" stroke-dasharray="3"/></g><g transform="translate(-278,-238) scale(1,1)"><path fill="none" stroke="#000000" d="M 515.790482243984 429.83732514237585 L 520 440 L 524.209517756016 429.83732514237585" stroke-miterlimit="10"/></g><g transform="translate(-278,-238) scale(1,1)"><g><path fill="none" stroke="none"/><text fill="#000000" stroke="none" font-family="Arial" font-size="13px" font-style="normal" font-weight="normal" text-decoration="none" x="521.5" y="416">«include»</text></g></g><g transform="translate(-278,-238) scale(1,1)"><path fill="#ffffff" stroke="none" d="M 736.4093503196023 441.68 C 736.4093503196023 436.886167936 740.2951926445477 433 745.088623046875 433 C 749.8820534492023 433 753.7678957741477 436.886167936 753.7678957741477 441.68 C 753.7678957741477 446.473832064 749.8820534492023 450.36 745.088623046875 450.36 C 740.2951926445477 450.36 736.4093503196023 446.473832064 736.4093503196023 441.68 Z"/></g><g transform="translate(-278,-238) scale(1,1)"><path fill="none" stroke="#000000" d="M 736.4093503196023 441.68 C 736.4093503196023 436.886167936 740.2951926445477 433 745.088623046875 433 C 749.8820534492023 433 753.7678957741477 436.886167936 753.7678957741477 441.68 C 753.7678957741477 446.473832064 749.8820534492023 450.36 745.088623046875 450.36 C 740.2951926445477 450.36 736.4093503196023 446.473832064 736.4093503196023 441.68 Z" stroke-miterlimit="10"/></g><g transform="translate(-278,-238) scale(1,1)"><path fill="none" stroke="#000000" d="M 745.088623046875 450.36 L 745.088623046875 467.64" stroke-miterlimit="10"/></g><g transform="translate(-278,-238) scale(1,1)"><path fill="none" stroke="#000000" d="M 735.8988048650568 456.84 L 754.2784412286932 456.84" stroke-miterlimit="10"/></g><g transform="translate(-278,-238) scale(1,1)"><path fill="none" stroke="#000000" d="M 745.088623046875 467.64 L 732.3249866832386 485" stroke-miterlimit="10"/></g><g transform="translate(-278,-238) scale(1,1)"><path fill="none" stroke="#000000" d="M 745.088623046875 467.64 L 757.8522594105114 485" stroke-miterlimit="10"/></g><g transform="translate(-278,-238) scale(1,1)"><g><path fill="none" stroke="none"/><text fill="#000000" stroke="none" font-family="Arial" font-size="13px" font-style="normal" font-weight="bold" text-decoration="none" x="724.84912109375" y="504">Server</text></g></g><g transform="translate(-278,-238) scale(1,1)"><path fill="none" stroke="#000000" d="M 569 376 L 719 457" stroke-miterlimit="10"/></g><g transform="translate(-278,-238) scale(1,1)"><path fill="#C0C0C0" stroke="none" d="M 447 571 C 447 555.5360256 485.5035072 543 533 543 C 580.4964927999999 543 619 555.5360256 619 571 C 619 586.4639744 580.4964927999999 599 533 599 C 485.5035072 599 447 586.4639744 447 571 Z" opacity="0.2"/></g><g transform="translate(-278,-238) scale(1,1)"><path fill="#ffffff" stroke="none" d="M 440 564 C 440 548.5360256 478.5035072 536 526 536 C 573.4964927999999 536 612 548.5360256 612 564 C 612 579.4639744 573.4964927999999 592 526 592 C 478.5035072 592 440 579.4639744 440 564 Z"/></g><g transform="translate(-278,-238) scale(1,1)"><path fill="none" stroke="#000000" d="M 440 564 C 440 548.5360256 478.5035072 536 526 536 C 573.4964927999999 536 612 548.5360256 612 564 C 612 579.4639744 573.4964927999999 592 526 592 C 478.5035072 592 440 579.4639744 440 564 Z" stroke-miterlimit="10"/></g><g transform="translate(-278,-238) scale(1,1)"><g><path fill="none" stroke="none"/><text fill="#000000" stroke="none" font-family="Arial" font-size="13px" font-style="normal" font-weight="bold" text-decoration="none" x="469.648681640625" y="569.5">Get Currency type</text></g></g><g transform="translate(-278,-238) scale(1,1)"><path fill="none" stroke="#000000" d="M 339 482 L 460 535" stroke-miterlimit="10"/></g><g transform="translate(-278,-238) scale(1,1)"><path fill="none" stroke="#000000" d="M 719 482 L 594 535" stroke-miterlimit="10"/></g></g></svg>