<svg xmlns="http://www.w3.org/2000/svg" xmlns:xlink="http://www.w3.org/1999/xlink" version="1.1" width="686.17724609375" height="724"><defs/><g><g transform="translate(-230,-222) scale(1,1)"><rect fill="#C0C0C0" stroke="none" x="359" y="239" width="448" height="704" opacity="0.2"/></g><g transform="translate(-230,-222) scale(1,1)"><rect fill="#ffffff" stroke="none" x="352" y="232" width="448" height="704"/></g><g transform="translate(-230,-222) scale(1,1)"><path fill="none" stroke="#000000" d="M 352 232 L 800 232 L 800 936 L 352 936 L 352 232 Z Z" stroke-miterlimit="10"/></g><g transform="translate(-230,-222) scale(1,1)"><g><path fill="none" stroke="none"/><text fill="#000000" stroke="none" font-family="Arial" font-size="13px" font-style="normal" font-weight="bold" text-decoration="none" x="508.464111328125" y="250">Application - backend</text></g></g><g transform="translate(-230,-222) scale(1,1)"><path fill="#ffffff" stroke="none" d="M 256.40935031960225 489.68 C 256.40935031960225 484.886167936 260.29519264454774 481 265.088623046875 481 C 269.88205344920226 481 273.76789577414775 484.886167936 273.76789577414775 489.68 C 273.76789577414775 494.473832064 269.88205344920226 498.36 265.088623046875 498.36 C 260.29519264454774 498.36 256.40935031960225 494.473832064 256.40935031960225 489.68 Z"/></g><g transform="translate(-230,-222) scale(1,1)"><path fill="none" stroke="#000000" d="M 256.40935031960225 489.68 C 256.40935031960225 484.886167936 260.29519264454774 481 265.088623046875 481 C 269.88205344920226 481 273.76789577414775 484.886167936 273.76789577414775 489.68 C 273.76789577414775 494.473832064 269.88205344920226 498.36 265.088623046875 498.36 C 260.29519264454774 498.36 256.40935031960225 494.473832064 256.40935031960225 489.68 Z" stroke-miterlimit="10"/></g><g transform="translate(-230,-222) scale(1,1)"><path fill="none" stroke="#000000" d="M 265.088623046875 498.36 L 265.088623046875 515.64" stroke-miterlimit="10"/></g><g transform="translate(-230,-222) scale(1,1)"><path fill="none" stroke="#000000" d="M 255.89880486505683 504.84 L 274.27844122869317 504.84" stroke-miterlimit="10"/></g><g transform="translate(-230,-222) scale(1,1)"><path fill="none" stroke="#000000" d="M 265.088623046875 515.64 L 252.32498668323865 533" stroke-miterlimit="10"/></g><g transform="translate(-230,-222) scale(1,1)"><path fill="none" stroke="#000000" d="M 265.088623046875 515.64 L 277.85225941051135 533" stroke-miterlimit="10"/></g><g transform="translate(-230,-222) scale(1,1)"><g><path fill="none" stroke="none"/><text fill="#000000" stroke="none" font-family="Arial" font-size="13px" font-style="normal" font-weight="bold" text-decoration="none" x="244.84912109375" y="552">Server</text></g></g><g transform="translate(-230,-222) scale(1,1)"><path fill="#C0C0C0" stroke="none" d="M 487 339 C 487 314.6994688 530.652232 295 584.5 295 C 638.347768 295 682 314.6994688 682 339 C 682 363.3005312 638.347768 383 584.5 383 C 530.652232 383 487 363.3005312 487 339 Z" opacity="0.2"/></g><g transform="translate(-230,-222) scale(1,1)"><path fill="#ffffff" stroke="none" d="M 480 332 C 480 307.6994688 523.652232 288 577.5 288 C 631.347768 288 675 307.6994688 675 332 C 675 356.3005312 631.347768 376 577.5 376 C 523.652232 376 480 356.3005312 480 332 Z"/></g><g transform="translate(-230,-222) scale(1,1)"><path fill="none" stroke="#000000" d="M 480 332 C 480 307.6994688 523.652232 288 577.5 288 C 631.347768 288 675 307.6994688 675 332 C 675 356.3005312 631.347768 376 577.5 376 C 523.652232 376 480 356.3005312 480 332 Z" stroke-miterlimit="10"/></g><g transform="translate(-230,-222) scale(1,1)"><g><path fill="none" stroke="none"/><text fill="#000000" stroke="none" font-family="Arial" font-size="13px" font-style="normal" font-weight="bold" text-decoration="none" x="513.093505859375" y="337.5">Waits for the request</text></g></g><g transform="translate(-230,-222) scale(1,1)"><path fill="none" stroke="#000000" d="M 291 503 L 502 377" stroke-miterlimit="10"/></g><g transform="translate(-230,-222) scale(1,1)"><path fill="#C0C0C0" stroke="none" d="M 439 502.5 C 439 485.1030288 503.4709888 471 583 471 C 662.5290112 471 727 485.1030288 727 502.5 C 727 519.8969712 662.5290112 534 583 534 C 503.4709888 534 439 519.8969712 439 502.5 Z" opacity="0.2"/></g><g transform="translate(-230,-222) scale(1,1)"><path fill="#ffffff" stroke="none" d="M 432 495.5 C 432 478.1030288 496.4709888 464 576 464 C 655.5290112 464 720 478.1030288 720 495.5 C 720 512.8969712 655.5290112 527 576 527 C 496.4709888 527 432 512.8969712 432 495.5 Z"/></g><g transform="translate(-230,-222) scale(1,1)"><path fill="none" stroke="#000000" d="M 432 495.5 C 432 478.1030288 496.4709888 464 576 464 C 655.5290112 464 720 478.1030288 720 495.5 C 720 512.8969712 655.5290112 527 576 527 C 496.4709888 527 432 512.8969712 432 495.5 Z" stroke-miterlimit="10"/></g><g transform="translate(-230,-222) scale(1,1)"><g><path fill="none" stroke="none"/><text fill="#000000" stroke="none" font-family="Arial" font-size="13px" font-style="normal" font-weight="bold" text-decoration="none" x="478.471435546875" y="501">Extracting Data from raw image</text></g></g><g transform="translate(-230,-222) scale(1,1)"><path fill="none" stroke="#000000" d="M 291 517 L 431 506" stroke-miterlimit="10"/></g><g transform="translate(-230,-222) scale(1,1)"><path fill="#ffffff" stroke="none" d="M 872.4093503196023 489.68 C 872.4093503196023 484.886167936 876.2951926445477 481 881.088623046875 481 C 885.8820534492023 481 889.7678957741477 484.886167936 889.7678957741477 489.68 C 889.7678957741477 494.473832064 885.8820534492023 498.36 881.088623046875 498.36 C 876.2951926445477 498.36 872.4093503196023 494.473832064 872.4093503196023 489.68 Z"/></g><g transform="translate(-230,-222) scale(1,1)"><path fill="none" stroke="#000000" d="M 872.4093503196023 489.68 C 872.4093503196023 484.886167936 876.2951926445477 481 881.088623046875 481 C 885.8820534492023 481 889.7678957741477 484.886167936 889.7678957741477 489.68 C 889.7678957741477 494.473832064 885.8820534492023 498.36 881.088623046875 498.36 C 876.2951926445477 498.36 872.4093503196023 494.473832064 872.4093503196023 489.68 Z" stroke-miterlimit="10"/></g><g transform="translate(-230,-222) scale(1,1)"><path fill="none" stroke="#000000" d="M 881.088623046875 498.36 L 881.088623046875 515.64" stroke-miterlimit="10"/></g><g transform="translate(-230,-222) scale(1,1)"><path fill="none" stroke="#000000" d="M 871.8988048650568 504.84 L 890.2784412286932 504.84" stroke-miterlimit="10"/></g><g transform="translate(-230,-222) scale(1,1)"><path fill="none" stroke="#000000" d="M 881.088623046875 515.64 L 868.3249866832386 533" stroke-miterlimit="10"/></g><g transform="translate(-230,-222) scale(1,1)"><path fill="none" stroke="#000000" d="M 881.088623046875 515.64 L 893.8522594105114 533" stroke-miterlimit="10"/></g><g transform="translate(-230,-222) scale(1,1)"><g><path fill="none" stroke="none"/><text fill="#000000" stroke="none" font-family="Arial" font-size="13px" font-style="normal" font-weight="bold" text-decoration="none" x="863.03271484375" y="552">Client</text></g></g><g transform="translate(-230,-222) scale(1,1)"><path fill="#C0C0C0" stroke="none" d="M 495 623 C 495 600.908608 537.532944 583 590 583 C 642.467056 583 685 600.908608 685 623 C 685 645.091392 642.467056 663 590 663 C 537.532944 663 495 645.091392 495 623 Z" opacity="0.2"/></g><g transform="translate(-230,-222) scale(1,1)"><path fill="#ffffff" stroke="none" d="M 488 616 C 488 593.908608 530.532944 576 583 576 C 635.467056 576 678 593.908608 678 616 C 678 638.091392 635.467056 656 583 656 C 530.532944 656 488 638.091392 488 616 Z"/></g><g transform="translate(-230,-222) scale(1,1)"><path fill="none" stroke="#000000" d="M 488 616 C 488 593.908608 530.532944 576 583 576 C 635.467056 576 678 593.908608 678 616 C 678 638.091392 635.467056 656 583 656 C 530.532944 656 488 638.091392 488 616 Z" stroke-miterlimit="10"/></g><g transform="translate(-230,-222) scale(1,1)"><g><path fill="none" stroke="none"/><text fill="#000000" stroke="none" font-family="Arial" font-size="13px" font-style="normal" font-weight="bold" text-decoration="none" x="520.148681640625" y="621.5">Data pre-processing</text></g></g><g transform="translate(-230,-222) scale(1,1)"><path fill="none" stroke="#000000" d="M 578 528 L 581 575" stroke-miterlimit="10" stroke-dasharray="3"/></g><g transform="translate(-230,-222) scale(1,1)"><path fill="none" stroke="#000000" d="M 576.1516674699579 565.1261116231681 L 581 575 L 584.5536046184968 564.589817762623" stroke-miterlimit="10"/></g><g transform="translate(-230,-222) scale(1,1)"><g><path fill="none" stroke="none"/><text fill="#000000" stroke="none" font-family="Arial" font-size="13px" font-style="normal" font-weight="normal" text-decoration="none" x="580.5" y="553">«include»</text></g></g><g transform="translate(-230,-222) scale(1,1)"><path fill="#C0C0C0" stroke="none" d="M 511 746.5 C 511 726.8938896 547.0410736 711 591.5 711 C 635.9589264 711 672 726.8938896 672 746.5 C 672 766.1061104 635.9589264 782 591.5 782 C 547.0410736 782 511 766.1061104 511 746.5 Z" opacity="0.2"/></g><g transform="translate(-230,-222) scale(1,1)"><path fill="#ffffff" stroke="none" d="M 504 739.5 C 504 719.8938896 540.0410736 704 584.5 704 C 628.9589264 704 665 719.8938896 665 739.5 C 665 759.1061104 628.9589264 775 584.5 775 C 540.0410736 775 504 759.1061104 504 739.5 Z"/></g><g transform="translate(-230,-222) scale(1,1)"><path fill="none" stroke="#000000" d="M 504 739.5 C 504 719.8938896 540.0410736 704 584.5 704 C 628.9589264 704 665 719.8938896 665 739.5 C 665 759.1061104 628.9589264 775 584.5 775 C 540.0410736 775 504 759.1061104 504 739.5 Z" stroke-miterlimit="10"/></g><g transform="translate(-230,-222) scale(1,1)"><g><path fill="none" stroke="none"/><text fill="#000000" stroke="none" font-family="Arial" font-size="13px" font-style="normal" font-weight="bold" text-decoration="none" x="532.135009765625" y="745">Model Prediction</text></g></g><g transform="translate(-230,-222) scale(1,1)"><path fill="none" stroke="#000000" d="M 583 657 L 584 703" stroke-miterlimit="10" stroke-dasharray="3"/></g><g transform="translate(-230,-222) scale(1,1)"><path fill="none" stroke="#000000" d="M 579.570601050423 692.9312153193404 L 584 703 L 587.9876478921751 692.7482360401718" stroke-miterlimit="10"/></g><g transform="translate(-230,-222) scale(1,1)"><g><path fill="none" stroke="none"/><text fill="#000000" stroke="none" font-family="Arial" font-size="13px" font-style="normal" font-weight="normal" text-decoration="none" x="584.5" y="683">«include»</text></g></g><g transform="translate(-230,-222) scale(1,1)"><path fill="none" stroke="#000000" d="M 584 775 L 584 792 L 472 792 L 472 739 L 504 739" stroke-miterlimit="10"/></g><g transform="translate(-230,-222) scale(1,1)"><path fill="none" stroke="#000000" d="M 493.83732514237585 743.209517756016 L 504 739 L 493.83732514237585 734.790482243984" stroke-miterlimit="10"/></g><g transform="translate(-230,-222) scale(1,1)"><g><path fill="none" stroke="none"/><text fill="#000000" stroke="none" font-family="Arial" font-size="13px" font-style="normal" font-weight="normal" text-decoration="none" x="365.5" y="755">+Model Updating</text></g></g><g transform="translate(-230,-222) scale(1,1)"><path fill="#C0C0C0" stroke="none" d="M 519 882.5 C 519 862.8938896 552.57864 847 594 847 C 635.42136 847 669 862.8938896 669 882.5 C 669 902.1061104 635.42136 918 594 918 C 552.57864 918 519 902.1061104 519 882.5 Z" opacity="0.2"/></g><g transform="translate(-230,-222) scale(1,1)"><path fill="#ffffff" stroke="none" d="M 512 875.5 C 512 855.8938896 545.57864 840 587 840 C 628.42136 840 662 855.8938896 662 875.5 C 662 895.1061104 628.42136 911 587 911 C 545.57864 911 512 895.1061104 512 875.5 Z"/></g><g transform="translate(-230,-222) scale(1,1)"><path fill="none" stroke="#000000" d="M 512 875.5 C 512 855.8938896 545.57864 840 587 840 C 628.42136 840 662 855.8938896 662 875.5 C 662 895.1061104 628.42136 911 587 911 C 545.57864 911 512 895.1061104 512 875.5 Z" stroke-miterlimit="10"/></g><g transform="translate(-230,-222) scale(1,1)"><g><path fill="none" stroke="none"/><text fill="#000000" stroke="none" font-family="Arial" font-size="13px" font-style="normal" font-weight="bold" text-decoration="none" x="538.589599609375" y="881">Predicted Value</text></g></g><g transform="translate(-230,-222) scale(1,1)"><path fill="none" stroke="#000000" d="M 617 839 L 855 550" stroke-miterlimit="10"/></g><g transform="translate(-230,-222) scale(1,1)"><path fill="none" stroke="#000000" d="M 585 776 L 586 839" stroke-miterlimit="10"/></g></g></svg>